# xmcd
#
# Track frame offsets:
#	150
#	15893
#	29148
#	43460
#	57803
#	73563
#	86460
#	101718
#	117860
#	129823
#	145670
#	161855
#	178418
#	194125
#	211540
#	225640
#	238830
#	260853
#
# Disc length: 3698 seconds
#
# Revision: 0
# Processed by: cddbd v1.5.2PL0 Copyright (c) Steve Scherf et al.
# Submitted via: dBpowerAMP V4.0
#
DISCID=070e7012
DTITLE=Diverse artiesten - OLON Nederlandse Country Special
DYEAR=2004
DGENRE=Country
TTITLE0=Doreen and Ruud Hermans - Till each tear becomes a rose
TTITLE1=Calyx and Frank Jansen - Wrong state of mind
TTITLE2=Sky Tune - Adios Baby
TTITLE3=Sandra Mooy - He will be mine
TTITLE4=Pinchitos Caliente - Hey baby que paso
TTITLE5=Grand Ole Country - Crazy arms
TTITLE6=Vash On Delivery - I'll never forget my heart
TTITLE7=Wim Pols and Calyx - He's rolling
TTITLE8=Will Stevens - Operator, operator
TTITLE9=Jimmy Lawton - Tonight she's holding her own
TTITLE10=Angela Visser - Two hearts one beat
TTITLE11=Sandra Mooy and Wim v.d. Vliert - Like we never had a broken heart
TTITLE12=Colonel Hammond's Four - Louisa-May
TTITLE13=Sandra Vanreys - Let go
TTITLE14=Ben Steneker and Dick van Altena - Some days
TTITLE15=B5 - The chair
TTITLE16=Kathy Bloom - Changed forever
TTITLE17=Roxy and B5 - Still dancing
EXTD=OLON Nederlandse Country Special 2004
EXTT0=
EXTT1=
EXTT2=
EXTT3=
EXTT4=
EXTT5=
EXTT6=
EXTT7=
EXTT8=
EXTT9=
EXTT10=
EXTT11=
EXTT12=
EXTT13=
EXTT14=
EXTT15=
EXTT16=
EXTT17=
PLAYORDER=
